<svg xmlns="http://www.w3.org/2000/svg" xmlns:xlink="http://www.w3.org/1999/xlink" width="500" zoomAndPan="magnify" viewBox="0 0 375 374.999991" height="500" preserveAspectRatio="xMidYMid meet" version="1.2"><defs><clipPath id="6c06f27277"><path d="M 331 332 L 337.988281 332 L 337.988281 351.363281 L 331 351.363281 Z M 331 332 "/></clipPath><clipPath id="424ed747ad"><path d="M 323 350 L 325 350 L 325 351.363281 L 323 351.363281 Z M 323 350 "/></clipPath><clipPath id="1bdb20c8ee"><path d="M 173 350 L 174 350 L 174 351.363281 L 173 351.363281 Z M 173 350 "/></clipPath><clipPath id="c87b63b721"><path d="M 181 332 L 194 332 L 194 351.363281 L 181 351.363281 Z M 181 332 "/></clipPath><clipPath id="e9f3d716c7"><path d="M 201 350 L 202 350 L 202 351.363281 L 201 351.363281 Z M 201 350 "/></clipPath><clipPath id="ab7442ffe6"><path d="M 37.238281 332 L 44 332 L 44 351.363281 L 37.238281 351.363281 Z M 37.238281 332 "/></clipPath><clipPath id="aa29cd059a"><path d="M 50 350 L 52 350 L 52 351.363281 L 50 351.363281 Z M 50 350 "/></clipPath><clipPath id="a04658fcb6"><path d="M 323 50.613281 L 337.988281 50.613281 L 337.988281 66 L 323 66 Z M 323 50.613281 "/></clipPath><clipPath id="2d34eb60ea"><path d="M 172 50.613281 L 203 50.613281 L 203 66 L 172 66 Z M 172 50.613281 "/></clipPath><clipPath id="d7f1d2e9cc"><path d="M 37.238281 50.613281 L 52 50.613281 L 52 66 L 37.238281 66 Z M 37.238281 50.613281 "/></clipPath><clipPath id="98248bd310"><path d="M 323 181 L 337.988281 181 L 337.988281 216 L 323 216 Z M 323 181 "/></clipPath><clipPath id="7986c7d90c"><path d="M 37.238281 181 L 52 181 L 52 216 L 37.238281 216 Z M 37.238281 181 "/></clipPath></defs><g id="2909f08f1d"><rect x="0" width="375" y="0" height="374.999991" style="fill:#ffffff;fill-opacity:1;stroke:none;"/><rect x="0" width="375" y="0" height="374.999991" style="fill:#000000;fill-opacity:1;stroke:none;"/><path style=" stroke:none;fill-rule:nonzero;fill:#ffffff;fill-opacity:1;" d="M 172.46875 64.382812 C 171.777344 64.382812 171.21875 64.945312 171.21875 65.636719 C 171.21875 66.332031 171.777344 66.890625 172.46875 66.890625 C 173.160156 66.890625 173.722656 66.332031 173.722656 65.636719 C 173.722656 64.945312 173.160156 64.382812 172.46875 64.382812 "/><path style=" stroke:none;fill-rule:nonzero;fill:#ffffff;fill-opacity:1;" d="M 167.460938 69.394531 C 166.769531 69.394531 166.207031 69.957031 166.207031 70.648438 C 166.207031 71.339844 166.769531 71.898438 167.460938 71.898438 C 168.152344 71.898438 168.714844 71.339844 168.714844 70.648438 C 168.714844 69.957031 168.152344 69.394531 167.460938 69.394531 "/><path style=" stroke:none;fill-rule:nonzero;fill:#ffffff;fill-opacity:1;" d="M 162.453125 74.40625 C 161.761719 74.40625 161.199219 74.964844 161.199219 75.652344 C 161.199219 76.347656 161.761719 76.90625 162.453125 76.90625 C 163.144531 76.90625 163.707031 76.347656 163.707031 75.652344 C 163.707031 74.964844 163.144531 74.40625 162.453125 74.40625 "/><path style=" stroke:none;fill-rule:nonzero;fill:#ffffff;fill-opacity:1;" d="M 157.445312 79.410156 C 156.75 79.410156 156.191406 79.972656 156.191406 80.664062 C 156.191406 81.355469 156.75 81.917969 157.445312 81.917969 C 158.132812 81.917969 158.695312 81.355469 158.695312 80.664062 C 158.695312 79.972656 158.132812 79.410156 157.445312 79.410156 "/><path style=" stroke:none;fill-rule:nonzero;fill:#ffffff;fill-opacity:1;" d="M 152.4375 84.421875 C 151.742188 84.421875 151.183594 84.980469 151.183594 85.671875 C 151.183594 86.363281 151.742188 86.921875 152.4375 86.921875 C 153.125 86.921875 153.6875 86.363281 153.6875 85.671875 C 153.6875 84.980469 153.125 84.421875 152.4375 84.421875 "/><path style=" stroke:none;fill-rule:nonzero;fill:#ffffff;fill-opacity:1;" d="M 147.425781 89.429688 C 146.734375 89.429688 146.175781 89.988281 146.175781 90.679688 C 146.175781 91.371094 146.734375 91.933594 147.425781 91.933594 C 148.117188 91.933594 148.679688 91.371094 148.679688 90.679688 C 148.679688 89.988281 148.117188 89.429688 147.425781 89.429688 "/><path style=" stroke:none;fill-rule:nonzero;fill:#ffffff;fill-opacity:1;" d="M 142.417969 94.4375 C 141.726562 94.4375 141.167969 94.996094 141.167969 95.6875 C 141.167969 96.382812 141.726562 96.941406 142.417969 96.941406 C 143.109375 96.941406 143.667969 96.382812 143.667969 95.6875 C 143.667969 94.996094 143.109375 94.4375 142.417969 94.4375 "/><path style=" stroke:none;fill-rule:nonzero;fill:#ffffff;fill-opacity:1;" d="M 137.410156 99.445312 C 136.71875 99.445312 136.15625 100.007812 136.15625 100.699219 C 136.15625 101.390625 136.71875 101.949219 137.410156 101.949219 C 138.101562 101.949219 138.660156 101.390625 138.660156 100.699219 C 138.660156 100.007812 138.101562 99.445312 137.410156 99.445312 "/><path style=" stroke:none;fill-rule:nonzero;fill:#ffffff;fill-opacity:1;" d="M 132.398438 104.457031 C 131.710938 104.457031 131.148438 105.015625 131.148438 105.703125 C 131.148438 106.398438 131.710938 106.957031 132.398438 106.957031 C 133.09375 106.957031 133.652344 106.398438 133.652344 105.703125 C 133.652344 105.015625 133.09375 104.457031 132.398438 104.457031 "/><path style=" stroke:none;fill-rule:nonzero;fill:#ffffff;fill-opacity:1;" d="M 127.390625 109.460938 C 126.699219 109.460938 126.140625 110.023438 126.140625 110.714844 C 126.140625 111.40625 126.699219 111.964844 127.390625 111.964844 C 128.082031 111.964844 128.644531 111.40625 128.644531 110.714844 C 128.644531 110.023438 128.082031 109.460938 127.390625 109.460938 "/><path style=" stroke:none;fill-rule:nonzero;fill:#ffffff;fill-opacity:1;" d="M 97.339844 139.515625 C 96.648438 139.515625 96.089844 140.074219 96.089844 140.765625 C 96.089844 141.460938 96.648438 142.019531 97.339844 142.019531 C 98.035156 142.019531 98.59375 141.460938 98.59375 140.765625 C 98.59375 140.074219 98.035156 139.515625 97.339844 139.515625 "/><path style=" stroke:none;fill-rule:nonzero;fill:#ffffff;fill-opacity:1;" d="M 92.332031 144.523438 C 91.640625 144.523438 91.078125 145.085938 91.078125 145.773438 C 91.078125 146.46875 91.640625 147.027344 92.332031 147.027344 C 93.023438 147.027344 93.585938 146.46875 93.585938 145.773438 C 93.585938 145.085938 93.023438 144.523438 92.332031 144.523438 "/><path style=" stroke:none;fill-rule:nonzero;fill:#ffffff;fill-opacity:1;" d="M 87.324219 149.53125 C 86.632812 149.53125 86.070312 150.09375 86.070312 150.785156 C 86.070312 151.476562 86.632812 152.035156 87.324219 152.035156 C 88.015625 152.035156 88.578125 151.476562 88.578125 150.785156 C 88.578125 150.09375 88.015625 149.53125 87.324219 149.53125 "/><path style=" stroke:none;fill-rule:nonzero;fill:#ffffff;fill-opacity:1;" d="M 82.316406 154.542969 C 81.621094 154.542969 81.0625 155.101562 81.0625 155.792969 C 81.0625 156.484375 81.621094 157.042969 82.316406 157.042969 C 83.007812 157.042969 83.566406 156.484375 83.566406 155.792969 C 83.566406 155.101562 83.007812 154.542969 82.316406 154.542969 "/><path style=" stroke:none;fill-rule:nonzero;fill:#ffffff;fill-opacity:1;" d="M 77.308594 159.550781 C 76.613281 159.550781 76.054688 160.109375 76.054688 160.800781 C 76.054688 161.492188 76.613281 162.054688 77.308594 162.054688 C 77.996094 162.054688 78.558594 161.492188 78.558594 160.800781 C 78.558594 160.109375 77.996094 159.550781 77.308594 159.550781 "/><path style=" stroke:none;fill-rule:nonzero;fill:#ffffff;fill-opacity:1;" d="M 72.296875 164.558594 C 71.605469 164.558594 71.046875 165.117188 71.046875 165.808594 C 71.046875 166.5 71.605469 167.0625 72.296875 167.0625 C 72.988281 167.0625 73.550781 166.5 73.550781 165.808594 C 73.550781 165.117188 72.988281 164.558594 72.296875 164.558594 "/><path style=" stroke:none;fill-rule:nonzero;fill:#ffffff;fill-opacity:1;" d="M 67.289062 169.566406 C 66.597656 169.566406 66.039062 170.125 66.039062 170.816406 C 66.039062 171.511719 66.597656 172.070312 67.289062 172.070312 C 67.980469 172.070312 68.539062 171.511719 68.539062 170.816406 C 68.539062 170.125 67.980469 169.566406 67.289062 169.566406 "/><path style=" stroke:none;fill-rule:nonzero;fill:#ffffff;fill-opacity:1;" d="M 62.28125 174.574219 C 61.589844 174.574219 61.027344 175.136719 61.027344 175.824219 C 61.027344 176.519531 61.589844 177.078125 62.28125 177.078125 C 62.972656 177.078125 63.53125 176.519531 63.53125 175.824219 C 63.53125 175.136719 62.972656 174.574219 62.28125 174.574219 "/><path style=" stroke:none;fill-rule:nonzero;fill:#ffffff;fill-opacity:1;" d="M 57.269531 179.582031 C 56.582031 179.582031 56.019531 180.144531 56.019531 180.835938 C 56.019531 181.527344 56.582031 182.085938 57.269531 182.085938 C 57.964844 182.085938 58.523438 181.527344 58.523438 180.835938 C 58.523438 180.144531 57.964844 179.582031 57.269531 179.582031 "/><path style=" stroke:none;fill-rule:nonzero;fill:#ffffff;fill-opacity:1;" d="M 52.261719 184.59375 C 51.570312 184.59375 51.011719 185.152344 51.011719 185.84375 C 51.011719 186.535156 51.570312 187.09375 52.261719 187.09375 C 52.957031 187.09375 53.515625 186.535156 53.515625 185.84375 C 53.515625 185.152344 52.957031 184.59375 52.261719 184.59375 "/><path style=" stroke:none;fill-rule:nonzero;fill:#ffffff;fill-opacity:1;" d="M 52.261719 64.382812 C 51.570312 64.382812 51.011719 64.945312 51.011719 65.636719 C 51.011719 66.332031 51.570312 66.890625 52.261719 66.890625 C 52.957031 66.890625 53.515625 66.332031 53.515625 65.636719 C 53.515625 64.945312 52.957031 64.382812 52.261719 64.382812 "/><path style=" stroke:none;fill-rule:nonzero;fill:#ffffff;fill-opacity:1;" d="M 57.269531 69.394531 C 56.582031 69.394531 56.019531 69.957031 56.019531 70.648438 C 56.019531 71.339844 56.582031 71.898438 57.269531 71.898438 C 57.964844 71.898438 58.523438 71.339844 58.523438 70.648438 C 58.523438 69.957031 57.964844 69.394531 57.269531 69.394531 "/><path style=" stroke:none;fill-rule:nonzero;fill:#ffffff;fill-opacity:1;" d="M 62.28125 74.40625 C 61.589844 74.40625 61.027344 74.964844 61.027344 75.652344 C 61.027344 76.347656 61.589844 76.90625 62.28125 76.90625 C 62.972656 76.90625 63.53125 76.347656 63.53125 75.652344 C 63.53125 74.964844 62.972656 74.40625 62.28125 74.40625 "/><path style=" stroke:none;fill-rule:nonzero;fill:#ffffff;fill-opacity:1;" d="M 67.289062 79.410156 C 66.597656 79.410156 66.039062 79.972656 66.039062 80.664062 C 66.039062 81.355469 66.597656 81.917969 67.289062 81.917969 C 67.980469 81.917969 68.539062 81.355469 68.539062 80.664062 C 68.539062 79.972656 67.980469 79.410156 67.289062 79.410156 "/><path style=" stroke:none;fill-rule:nonzero;fill:#ffffff;fill-opacity:1;" d="M 72.296875 84.421875 C 71.605469 84.421875 71.046875 84.980469 71.046875 85.671875 C 71.046875 86.363281 71.605469 86.921875 72.296875 86.921875 C 72.988281 86.921875 73.550781 86.363281 73.550781 85.671875 C 73.550781 84.980469 72.988281 84.421875 72.296875 84.421875 "/><path style=" stroke:none;fill-rule:nonzero;fill:#ffffff;fill-opacity:1;" d="M 77.308594 89.429688 C 76.613281 89.429688 76.054688 89.988281 76.054688 90.679688 C 76.054688 91.371094 76.613281 91.933594 77.308594 91.933594 C 77.996094 91.933594 78.558594 91.371094 78.558594 90.679688 C 78.558594 89.988281 77.996094 89.429688 77.308594 89.429688 "/><path style=" stroke:none;fill-rule:nonzero;fill:#ffffff;fill-opacity:1;" d="M 82.316406 94.4375 C 81.621094 94.4375 81.0625 94.996094 81.0625 95.6875 C 81.0625 96.382812 81.621094 96.941406 82.316406 96.941406 C 83.007812 96.941406 83.566406 96.382812 83.566406 95.6875 C 83.566406 94.996094 83.007812 94.4375 82.316406 94.4375 "/><path style=" stroke:none;fill-rule:nonzero;fill:#ffffff;fill-opacity:1;" d="M 87.324219 99.445312 C 86.632812 99.445312 86.070312 100.007812 86.070312 100.699219 C 86.070312 101.390625 86.632812 101.949219 87.324219 101.949219 C 88.015625 101.949219 88.578125 101.390625 88.578125 100.699219 C 88.578125 100.007812 88.015625 99.445312 87.324219 99.445312 "/><path style=" stroke:none;fill-rule:nonzero;fill:#ffffff;fill-opacity:1;" d="M 92.332031 104.457031 C 91.640625 104.457031 91.078125 105.015625 91.078125 105.703125 C 91.078125 106.398438 91.640625 106.957031 92.332031 106.957031 C 93.023438 106.957031 93.585938 106.398438 93.585938 105.703125 C 93.585938 105.015625 93.023438 104.457031 92.332031 104.457031 "/><path style=" stroke:none;fill-rule:nonzero;fill:#ffffff;fill-opacity:1;" d="M 97.339844 109.460938 C 96.648438 109.460938 96.089844 110.023438 96.089844 110.714844 C 96.089844 111.40625 96.648438 111.964844 97.339844 111.964844 C 98.035156 111.964844 98.59375 111.40625 98.59375 110.714844 C 98.59375 110.023438 98.035156 109.460938 97.339844 109.460938 "/><path style=" stroke:none;fill-rule:nonzero;fill:#ffffff;fill-opacity:1;" d="M 127.390625 139.515625 C 126.699219 139.515625 126.140625 140.074219 126.140625 140.765625 C 126.140625 141.460938 126.699219 142.019531 127.390625 142.019531 C 128.082031 142.019531 128.644531 141.460938 128.644531 140.765625 C 128.644531 140.074219 128.082031 139.515625 127.390625 139.515625 "/><path style=" stroke:none;fill-rule:nonzero;fill:#ffffff;fill-opacity:1;" d="M 132.398438 144.523438 C 131.710938 144.523438 131.148438 145.085938 131.148438 145.773438 C 131.148438 146.46875 131.710938 147.027344 132.398438 147.027344 C 133.09375 147.027344 133.652344 146.46875 133.652344 145.773438 C 133.652344 145.085938 133.09375 144.523438 132.398438 144.523438 "/><path style=" stroke:none;fill-rule:nonzero;fill:#ffffff;fill-opacity:1;" d="M 137.410156 149.53125 C 136.71875 149.53125 136.15625 150.09375 136.15625 150.785156 C 136.15625 151.476562 136.71875 152.035156 137.410156 152.035156 C 138.101562 152.035156 138.660156 151.476562 138.660156 150.785156 C 138.660156 150.09375 138.101562 149.53125 137.410156 149.53125 "/><path style=" stroke:none;fill-rule:nonzero;fill:#ffffff;fill-opacity:1;" d="M 142.417969 154.542969 C 141.726562 154.542969 141.167969 155.101562 141.167969 155.792969 C 141.167969 156.484375 141.726562 157.042969 142.417969 157.042969 C 143.109375 157.042969 143.667969 156.484375 143.667969 155.792969 C 143.667969 155.101562 143.109375 154.542969 142.417969 154.542969 "/><path style=" stroke:none;fill-rule:nonzero;fill:#ffffff;fill-opacity:1;" d="M 147.425781 159.550781 C 146.734375 159.550781 146.175781 160.109375 146.175781 160.800781 C 146.175781 161.492188 146.734375 162.054688 147.425781 162.054688 C 148.117188 162.054688 148.679688 161.492188 148.679688 160.800781 C 148.679688 160.109375 148.117188 159.550781 147.425781 159.550781 "/><path style=" stroke:none;fill-rule:nonzero;fill:#ffffff;fill-opacity:1;" d="M 152.4375 164.558594 C 151.742188 164.558594 151.183594 165.117188 151.183594 165.808594 C 151.183594 166.5 151.742188 167.0625 152.4375 167.0625 C 153.125 167.0625 153.6875 166.5 153.6875 165.808594 C 153.6875 165.117188 153.125 164.558594 152.4375 164.558594 "/><path style=" stroke:none;fill-rule:nonzero;fill:#ffffff;fill-opacity:1;" d="M 157.445312 169.566406 C 156.75 169.566406 156.191406 170.125 156.191406 170.816406 C 156.191406 171.511719 156.75 172.070312 157.445312 172.070312 C 158.132812 172.070312 158.695312 171.511719 158.695312 170.816406 C 158.695312 170.125 158.132812 169.566406 157.445312 169.566406 "/><path style=" stroke:none;fill-rule:nonzero;fill:#ffffff;fill-opacity:1;" d="M 162.453125 174.574219 C 161.761719 174.574219 161.199219 175.136719 161.199219 175.824219 C 161.199219 176.519531 161.761719 177.078125 162.453125 177.078125 C 163.144531 177.078125 163.707031 176.519531 163.707031 175.824219 C 163.707031 175.136719 163.144531 174.574219 162.453125 174.574219 "/><path style=" stroke:none;fill-rule:nonzero;fill:#ffffff;fill-opacity:1;" d="M 167.460938 179.582031 C 166.769531 179.582031 166.207031 180.144531 166.207031 180.835938 C 166.207031 181.527344 166.769531 182.085938 167.460938 182.085938 C 168.152344 182.085938 168.714844 181.527344 168.714844 180.835938 C 168.714844 180.144531 168.152344 179.582031 167.460938 179.582031 "/><path style=" stroke:none;fill-rule:nonzero;fill:#ffffff;fill-opacity:1;" d="M 172.46875 184.59375 C 171.777344 184.59375 171.21875 185.152344 171.21875 185.84375 C 171.21875 186.535156 171.777344 187.09375 172.46875 187.09375 C 173.160156 187.09375 173.722656 186.535156 173.722656 185.84375 C 173.722656 185.152344 173.160156 184.59375 172.46875 184.59375 "/><path style=" stroke:none;fill-rule:nonzero;fill:#ffffff;fill-opacity:1;" d="M 322.726562 64.382812 C 322.039062 64.382812 321.476562 64.945312 321.476562 65.636719 C 321.476562 66.332031 322.039062 66.890625 322.726562 66.890625 C 323.417969 66.890625 323.980469 66.332031 323.980469 65.636719 C 323.980469 64.945312 323.417969 64.382812 322.726562 64.382812 "/><path style=" stroke:none;fill-rule:nonzero;fill:#ffffff;fill-opacity:1;" d="M 317.71875 69.394531 C 317.027344 69.394531 316.464844 69.957031 316.464844 70.648438 C 316.464844 71.339844 317.027344 71.898438 317.71875 71.898438 C 318.410156 71.898438 318.972656 71.339844 318.972656 70.648438 C 318.972656 69.957031 318.410156 69.394531 317.71875 69.394531 "/><path style=" stroke:none;fill-rule:nonzero;fill:#ffffff;fill-opacity:1;" d="M 312.710938 74.40625 C 312.019531 74.40625 311.457031 74.964844 311.457031 75.652344 C 311.457031 76.347656 312.019531 76.90625 312.710938 76.90625 C 313.402344 76.90625 313.964844 76.347656 313.964844 75.652344 C 313.964844 74.964844 313.402344 74.40625 312.710938 74.40625 "/><path style=" stroke:none;fill-rule:nonzero;fill:#ffffff;fill-opacity:1;" d="M 307.703125 79.410156 C 307.011719 79.410156 306.449219 79.972656 306.449219 80.664062 C 306.449219 81.355469 307.011719 81.917969 307.703125 81.917969 C 308.390625 81.917969 308.953125 81.355469 308.953125 80.664062 C 308.953125 79.972656 308.390625 79.410156 307.703125 79.410156 "/><path style=" stroke:none;fill-rule:nonzero;fill:#ffffff;fill-opacity:1;" d="M 302.695312 84.421875 C 302 84.421875 301.441406 84.980469 301.441406 85.671875 C 301.441406 86.363281 302 86.921875 302.695312 86.921875 C 303.382812 86.921875 303.945312 86.363281 303.945312 85.671875 C 303.945312 84.980469 303.382812 84.421875 302.695312 84.421875 "/><path style=" stroke:none;fill-rule:nonzero;fill:#ffffff;fill-opacity:1;" d="M 297.683594 89.429688 C 296.992188 89.429688 296.433594 89.988281 296.433594 90.679688 C 296.433594 91.371094 296.992188 91.933594 297.683594 91.933594 C 298.375 91.933594 298.9375 91.371094 298.9375 90.679688 C 298.9375 89.988281 298.375 89.429688 297.683594 89.429688 "/><path style=" stroke:none;fill-rule:nonzero;fill:#ffffff;fill-opacity:1;" d="M 292.675781 94.4375 C 291.984375 94.4375 291.425781 94.996094 291.425781 95.6875 C 291.425781 96.382812 291.984375 96.941406 292.675781 96.941406 C 293.367188 96.941406 293.925781 96.382812 293.925781 95.6875 C 293.925781 94.996094 293.367188 94.4375 292.675781 94.4375 "/><path style=" stroke:none;fill-rule:nonzero;fill:#ffffff;fill-opacity:1;" d="M 287.667969 99.445312 C 286.976562 99.445312 286.414062 100.007812 286.414062 100.699219 C 286.414062 101.390625 286.976562 101.949219 287.667969 101.949219 C 288.359375 101.949219 288.917969 101.390625 288.917969 100.699219 C 288.917969 100.007812 288.359375 99.445312 287.667969 99.445312 "/><path style=" stroke:none;fill-rule:nonzero;fill:#ffffff;fill-opacity:1;" d="M 282.65625 104.457031 C 281.96875 104.457031 281.40625 105.015625 281.40625 105.703125 C 281.40625 106.398438 281.96875 106.957031 282.65625 106.957031 C 283.351562 106.957031 283.910156 106.398438 283.910156 105.703125 C 283.910156 105.015625 283.351562 104.457031 282.65625 104.457031 "/><path style=" stroke:none;fill-rule:nonzero;fill:#ffffff;fill-opacity:1;" d="M 277.648438 109.460938 C 276.960938 109.460938 276.398438 110.023438 276.398438 110.714844 C 276.398438 111.40625 276.960938 111.964844 277.648438 111.964844 C 278.339844 111.964844 278.902344 111.40625 278.902344 110.714844 C 278.902344 110.023438 278.339844 109.460938 277.648438 109.460938 "/><path style=" stroke:none;fill-rule:nonzero;fill:#ffffff;fill-opacity:1;" d="M 247.597656 139.515625 C 246.910156 139.515625 246.347656 140.074219 246.347656 140.765625 C 246.347656 141.460938 246.910156 142.019531 247.597656 142.019531 C 248.289062 142.019531 248.851562 141.460938 248.851562 140.765625 C 248.851562 140.074219 248.289062 139.515625 247.597656 139.515625 "/><path style=" stroke:none;fill-rule:nonzero;fill:#ffffff;fill-opacity:1;" d="M 242.589844 144.523438 C 241.898438 144.523438 241.335938 145.085938 241.335938 145.773438 C 241.335938 146.46875 241.898438 147.027344 242.589844 147.027344 C 243.28125 147.027344 243.84375 146.46875 243.84375 145.773438 C 243.84375 145.085938 243.28125 144.523438 242.589844 144.523438 "/><path style=" stroke:none;fill-rule:nonzero;fill:#ffffff;fill-opacity:1;" d="M 237.582031 149.53125 C 236.890625 149.53125 236.328125 150.09375 236.328125 150.785156 C 236.328125 151.476562 236.890625 152.035156 237.582031 152.035156 C 238.273438 152.035156 238.835938 151.476562 238.835938 150.785156 C 238.835938 150.09375 238.273438 149.53125 237.582031 149.53125 "/><path style=" stroke:none;fill-rule:nonzero;fill:#ffffff;fill-opacity:1;" d="M 232.574219 154.542969 C 231.882812 154.542969 231.320312 155.101562 231.320312 155.792969 C 231.320312 156.484375 231.882812 157.042969 232.574219 157.042969 C 233.261719 157.042969 233.824219 156.484375 233.824219 155.792969 C 233.824219 155.101562 233.261719 154.542969 232.574219 154.542969 "/><path style=" stroke:none;fill-rule:nonzero;fill:#ffffff;fill-opacity:1;" d="M 227.566406 159.550781 C 226.871094 159.550781 226.3125 160.109375 226.3125 160.800781 C 226.3125 161.492188 226.871094 162.054688 227.566406 162.054688 C 228.253906 162.054688 228.816406 161.492188 228.816406 160.800781 C 228.816406 160.109375 228.253906 159.550781 227.566406 159.550781 "/><path style=" stroke:none;fill-rule:nonzero;fill:#ffffff;fill-opacity:1;" d="M 222.554688 164.558594 C 221.863281 164.558594 221.304688 165.117188 221.304688 165.808594 C 221.304688 166.5 221.863281 167.0625 222.554688 167.0625 C 223.246094 167.0625 223.808594 166.5 223.808594 165.808594 C 223.808594 165.117188 223.246094 164.558594 222.554688 164.558594 "/><path style=" stroke:none;fill-rule:nonzero;fill:#ffffff;fill-opacity:1;" d="M 217.546875 169.566406 C 216.855469 169.566406 216.296875 170.125 216.296875 170.816406 C 216.296875 171.511719 216.855469 172.070312 217.546875 172.070312 C 218.238281 172.070312 218.796875 171.511719 218.796875 170.816406 C 218.796875 170.125 218.238281 169.566406 217.546875 169.566406 "/><path style=" stroke:none;fill-rule:nonzero;fill:#ffffff;fill-opacity:1;" d="M 212.539062 174.574219 C 211.847656 174.574219 211.285156 175.136719 211.285156 175.824219 C 211.285156 176.519531 211.847656 177.078125 212.539062 177.078125 C 213.230469 177.078125 213.789062 176.519531 213.789062 175.824219 C 213.789062 175.136719 213.230469 174.574219 212.539062 174.574219 "/><path style=" stroke:none;fill-rule:nonzero;fill:#ffffff;fill-opacity:1;" d="M 207.527344 179.582031 C 206.839844 179.582031 206.277344 180.144531 206.277344 180.835938 C 206.277344 181.527344 206.839844 182.085938 207.527344 182.085938 C 208.222656 182.085938 208.78125 181.527344 208.78125 180.835938 C 208.78125 180.144531 208.222656 179.582031 207.527344 179.582031 "/><path style=" stroke:none;fill-rule:nonzero;fill:#ffffff;fill-opacity:1;" d="M 202.519531 184.59375 C 201.832031 184.59375 201.269531 185.152344 201.269531 185.84375 C 201.269531 186.535156 201.832031 187.09375 202.519531 187.09375 C 203.210938 187.09375 203.773438 186.535156 203.773438 185.84375 C 203.773438 185.152344 203.210938 184.59375 202.519531 184.59375 "/><path style=" stroke:none;fill-rule:nonzero;fill:#ffffff;fill-opacity:1;" d="M 202.519531 64.382812 C 201.832031 64.382812 201.269531 64.945312 201.269531 65.636719 C 201.269531 66.332031 201.832031 66.890625 202.519531 66.890625 C 203.210938 66.890625 203.773438 66.332031 203.773438 65.636719 C 203.773438 64.945312 203.210938 64.382812 202.519531 64.382812 "/><path style=" stroke:none;fill-rule:nonzero;fill:#ffffff;fill-opacity:1;" d="M 207.527344 69.394531 C 206.839844 69.394531 206.277344 69.957031 206.277344 70.648438 C 206.277344 71.339844 206.839844 71.898438 207.527344 71.898438 C 208.222656 71.898438 208.78125 71.339844 208.78125 70.648438 C 208.78125 69.957031 208.222656 69.394531 207.527344 69.394531 "/><path style=" stroke:none;fill-rule:nonzero;fill:#ffffff;fill-opacity:1;" d="M 212.539062 74.40625 C 211.847656 74.40625 211.285156 74.964844 211.285156 75.652344 C 211.285156 76.347656 211.847656 76.90625 212.539062 76.90625 C 213.230469 76.90625 213.789062 76.347656 213.789062 75.652344 C 213.789062 74.964844 213.230469 74.40625 212.539062 74.40625 "/><path style=" stroke:none;fill-rule:nonzero;fill:#ffffff;fill-opacity:1;" d="M 217.546875 79.410156 C 216.855469 79.410156 216.296875 79.972656 216.296875 80.664062 C 216.296875 81.355469 216.855469 81.917969 217.546875 81.917969 C 218.238281 81.917969 218.796875 81.355469 218.796875 80.664062 C 218.796875 79.972656 218.238281 79.410156 217.546875 79.410156 "/><path style=" stroke:none;fill-rule:nonzero;fill:#ffffff;fill-opacity:1;" d="M 222.554688 84.421875 C 221.863281 84.421875 221.304688 84.980469 221.304688 85.671875 C 221.304688 86.363281 221.863281 86.921875 222.554688 86.921875 C 223.246094 86.921875 223.808594 86.363281 223.808594 85.671875 C 223.808594 84.980469 223.246094 84.421875 222.554688 84.421875 "/><path style=" stroke:none;fill-rule:nonzero;fill:#ffffff;fill-opacity:1;" d="M 227.566406 89.429688 C 226.871094 89.429688 226.3125 89.988281 226.3125 90.679688 C 226.3125 91.371094 226.871094 91.933594 227.566406 91.933594 C 228.253906 91.933594 228.816406 91.371094 228.816406 90.679688 C 228.816406 89.988281 228.253906 89.429688 227.566406 89.429688 "/><path style=" stroke:none;fill-rule:nonzero;fill:#ffffff;fill-opacity:1;" d="M 232.574219 94.4375 C 231.882812 94.4375 231.320312 94.996094 231.320312 95.6875 C 231.320312 96.382812 231.882812 96.941406 232.574219 96.941406 C 233.261719 96.941406 233.824219 96.382812 233.824219 95.6875 C 233.824219 94.996094 233.261719 94.4375 232.574219 94.4375 "/><path style=" stroke:none;fill-rule:nonzero;fill:#ffffff;fill-opacity:1;" d="M 237.582031 99.445312 C 236.890625 99.445312 236.328125 100.007812 236.328125 100.699219 C 236.328125 101.390625 236.890625 101.949219 237.582031 101.949219 C 238.273438 101.949219 238.835938 101.390625 238.835938 100.699219 C 238.835938 100.007812 238.273438 99.445312 237.582031 99.445312 "/><path style=" stroke:none;fill-rule:nonzero;fill:#ffffff;fill-opacity:1;" d="M 242.589844 104.457031 C 241.898438 104.457031 241.335938 105.015625 241.335938 105.703125 C 241.335938 106.398438 241.898438 106.957031 242.589844 106.957031 C 243.28125 106.957031 243.84375 106.398438 243.84375 105.703125 C 243.84375 105.015625 243.28125 104.457031 242.589844 104.457031 "/><path style=" stroke:none;fill-rule:nonzero;fill:#ffffff;fill-opacity:1;" d="M 247.597656 109.460938 C 246.910156 109.460938 246.347656 110.023438 246.347656 110.714844 C 246.347656 111.40625 246.910156 111.964844 247.597656 111.964844 C 248.289062 111.964844 248.851562 111.40625 248.851562 110.714844 C 248.851562 110.023438 248.289062 109.460938 247.597656 109.460938 "/><path style=" stroke:none;fill-rule:nonzero;fill:#ffffff;fill-opacity:1;" d="M 277.648438 139.515625 C 276.960938 139.515625 276.398438 140.074219 276.398438 140.765625 C 276.398438 141.460938 276.960938 142.019531 277.648438 142.019531 C 278.339844 142.019531 278.902344 141.460938 278.902344 140.765625 C 278.902344 140.074219 278.339844 139.515625 277.648438 139.515625 "/><path style=" stroke:none;fill-rule:nonzero;fill:#ffffff;fill-opacity:1;" d="M 282.65625 144.523438 C 281.96875 144.523438 281.40625 145.085938 281.40625 145.773438 C 281.40625 146.46875 281.96875 147.027344 282.65625 147.027344 C 283.351562 147.027344 283.910156 146.46875 283.910156 145.773438 C 283.910156 145.085938 283.351562 144.523438 282.65625 144.523438 "/><path style=" stroke:none;fill-rule:nonzero;fill:#ffffff;fill-opacity:1;" d="M 287.667969 149.53125 C 286.976562 149.53125 286.414062 150.09375 286.414062 150.785156 C 286.414062 151.476562 286.976562 152.035156 287.667969 152.035156 C 288.359375 152.035156 288.917969 151.476562 288.917969 150.785156 C 288.917969 150.09375 288.359375 149.53125 287.667969 149.53125 "/><path style=" stroke:none;fill-rule:nonzero;fill:#ffffff;fill-opacity:1;" d="M 292.675781 154.542969 C 291.984375 154.542969 291.425781 155.101562 291.425781 155.792969 C 291.425781 156.484375 291.984375 157.042969 292.675781 157.042969 C 293.367188 157.042969 293.925781 156.484375 293.925781 155.792969 C 293.925781 155.101562 293.367188 154.542969 292.675781 154.542969 "/><path style=" stroke:none;fill-rule:nonzero;fill:#ffffff;fill-opacity:1;" d="M 297.683594 159.550781 C 296.992188 159.550781 296.433594 160.109375 296.433594 160.800781 C 296.433594 161.492188 296.992188 162.054688 297.683594 162.054688 C 298.375 162.054688 298.9375 161.492188 298.9375 160.800781 C 298.9375 160.109375 298.375 159.550781 297.683594 159.550781 "/><path style=" stroke:none;fill-rule:nonzero;fill:#ffffff;fill-opacity:1;" d="M 302.695312 164.558594 C 302 164.558594 301.441406 165.117188 301.441406 165.808594 C 301.441406 166.5 302 167.0625 302.695312 167.0625 C 303.382812 167.0625 303.945312 166.5 303.945312 165.808594 C 303.945312 165.117188 303.382812 164.558594 302.695312 164.558594 "/><path style=" stroke:none;fill-rule:nonzero;fill:#ffffff;fill-opacity:1;" d="M 307.703125 169.566406 C 307.011719 169.566406 306.449219 170.125 306.449219 170.816406 C 306.449219 171.511719 307.011719 172.070312 307.703125 172.070312 C 308.390625 172.070312 308.953125 171.511719 308.953125 170.816406 C 308.953125 170.125 308.390625 169.566406 307.703125 169.566406 "/><path style=" stroke:none;fill-rule:nonzero;fill:#ffffff;fill-opacity:1;" d="M 312.710938 174.574219 C 312.019531 174.574219 311.457031 175.136719 311.457031 175.824219 C 311.457031 176.519531 312.019531 177.078125 312.710938 177.078125 C 313.402344 177.078125 313.964844 176.519531 313.964844 175.824219 C 313.964844 175.136719 313.402344 174.574219 312.710938 174.574219 "/><path style=" stroke:none;fill-rule:nonzero;fill:#ffffff;fill-opacity:1;" d="M 317.71875 179.582031 C 317.027344 179.582031 316.464844 180.144531 316.464844 180.835938 C 316.464844 181.527344 317.027344 182.085938 317.71875 182.085938 C 318.410156 182.085938 318.972656 181.527344 318.972656 180.835938 C 318.972656 180.144531 318.410156 179.582031 317.71875 179.582031 "/><path style=" stroke:none;fill-rule:nonzero;fill:#ffffff;fill-opacity:1;" d="M 322.726562 184.59375 C 322.039062 184.59375 321.476562 185.152344 321.476562 185.84375 C 321.476562 186.535156 322.039062 187.09375 322.726562 187.09375 C 323.417969 187.09375 323.980469 186.535156 323.980469 185.84375 C 323.980469 185.152344 323.417969 184.59375 322.726562 184.59375 "/><path style=" stroke:none;fill-rule:nonzero;fill:#ffffff;fill-opacity:1;" d="M 172.46875 214.644531 C 171.777344 214.644531 171.21875 215.207031 171.21875 215.894531 C 171.21875 216.585938 171.777344 217.148438 172.46875 217.148438 C 173.160156 217.148438 173.722656 216.585938 173.722656 215.894531 C 173.722656 215.207031 173.160156 214.644531 172.46875 214.644531 "/><path style=" stroke:none;fill-rule:nonzero;fill:#ffffff;fill-opacity:1;" d="M 167.460938 219.652344 C 166.769531 219.652344 166.207031 220.214844 166.207031 220.902344 C 166.207031 221.597656 166.769531 222.15625 167.460938 222.15625 C 168.152344 222.15625 168.714844 221.597656 168.714844 220.902344 C 168.714844 220.214844 168.152344 219.652344 167.460938 219.652344 "/><path style=" stroke:none;fill-rule:nonzero;fill:#ffffff;fill-opacity:1;" d="M 162.453125 224.660156 C 161.761719 224.660156 161.199219 225.222656 161.199219 225.914062 C 161.199219 226.605469 161.761719 227.164062 162.453125 227.164062 C 163.144531 227.164062 163.707031 226.605469 163.707031 225.914062 C 163.707031 225.222656 163.144531 224.660156 162.453125 224.660156 "/><path style=" stroke:none;fill-rule:nonzero;fill:#ffffff;fill-opacity:1;" d="M 157.445312 229.671875 C 156.75 229.671875 156.191406 230.230469 156.191406 230.921875 C 156.191406 231.613281 156.75 232.171875 157.445312 232.171875 C 158.132812 232.171875 158.695312 231.613281 158.695312 230.921875 C 158.695312 230.230469 158.132812 229.671875 157.445312 229.671875 "/><path style=" stroke:none;fill-rule:nonzero;fill:#ffffff;fill-opacity:1;" d="M 152.4375 234.675781 C 151.742188 234.675781 151.183594 235.238281 151.183594 235.929688 C 151.183594 236.621094 151.742188 237.183594 152.4375 237.183594 C 153.125 237.183594 153.6875 236.621094 153.6875 235.929688 C 153.6875 235.238281 153.125 234.675781 152.4375 234.675781 "/><path style=" stroke:none;fill-rule:nonzero;fill:#ffffff;fill-opacity:1;" d="M 147.425781 239.683594 C 146.734375 239.683594 146.175781 240.246094 146.175781 240.9375 C 146.175781 241.628906 146.734375 242.191406 147.425781 242.191406 C 148.117188 242.191406 148.679688 241.628906 148.679688 240.9375 C 148.679688 240.246094 148.117188 239.683594 147.425781 239.683594 "/><path style=" stroke:none;fill-rule:nonzero;fill:#ffffff;fill-opacity:1;" d="M 142.417969 244.695312 C 141.726562 244.695312 141.167969 245.257812 141.167969 245.945312 C 141.167969 246.636719 141.726562 247.199219 142.417969 247.199219 C 143.109375 247.199219 143.667969 246.636719 143.667969 245.945312 C 143.667969 245.257812 143.109375 244.695312 142.417969 244.695312 "/><path style=" stroke:none;fill-rule:nonzero;fill:#ffffff;fill-opacity:1;" d="M 137.410156 249.703125 C 136.71875 249.703125 136.15625 250.265625 136.15625 250.953125 C 136.15625 251.648438 136.71875 252.207031 137.410156 252.207031 C 138.101562 252.207031 138.660156 251.648438 138.660156 250.953125 C 138.660156 250.265625 138.101562 249.703125 137.410156 249.703125 "/><path style=" stroke:none;fill-rule:nonzero;fill:#ffffff;fill-opacity:1;" d="M 132.398438 254.710938 C 131.710938 254.710938 131.148438 255.273438 131.148438 255.964844 C 131.148438 256.65625 131.710938 257.214844 132.398438 257.214844 C 133.09375 257.214844 133.652344 256.65625 133.652344 255.964844 C 133.652344 255.273438 133.09375 254.710938 132.398438 254.710938 "/><path style=" stroke:none;fill-rule:nonzero;fill:#ffffff;fill-opacity:1;" d="M 127.390625 259.722656 C 126.699219 259.722656 126.140625 260.28125 126.140625 260.972656 C 126.140625 261.664062 126.699219 262.222656 127.390625 262.222656 C 128.082031 262.222656 128.644531 261.664062 128.644531 260.972656 C 128.644531 260.28125 128.082031 259.722656 127.390625 259.722656 "/><path style=" stroke:none;fill-rule:nonzero;fill:#ffffff;fill-opacity:1;" d="M 97.339844 289.773438 C 96.648438 289.773438 96.089844 290.335938 96.089844 291.023438 C 96.089844 291.714844 96.648438 292.277344 97.339844 292.277344 C 98.035156 292.277344 98.59375 291.714844 98.59375 291.023438 C 98.59375 290.335938 98.035156 289.773438 97.339844 289.773438 "/><path style=" stroke:none;fill-rule:nonzero;fill:#ffffff;fill-opacity:1;" d="M 92.332031 294.78125 C 91.640625 294.78125 91.078125 295.34375 91.078125 296.03125 C 91.078125 296.726562 91.640625 297.285156 92.332031 297.285156 C 93.023438 297.285156 93.585938 296.726562 93.585938 296.03125 C 93.585938 295.34375 93.023438 294.78125 92.332031 294.78125 "/><path style=" stroke:none;fill-rule:nonzero;fill:#ffffff;fill-opacity:1;" d="M 87.324219 299.789062 C 86.632812 299.789062 86.070312 300.351562 86.070312 301.042969 C 86.070312 301.734375 86.632812 302.292969 87.324219 302.292969 C 88.015625 302.292969 88.578125 301.734375 88.578125 301.042969 C 88.578125 300.351562 88.015625 299.789062 87.324219 299.789062 "/><path style=" stroke:none;fill-rule:nonzero;fill:#ffffff;fill-opacity:1;" d="M 82.316406 304.796875 C 81.621094 304.796875 81.0625 305.359375 81.0625 306.050781 C 81.0625 306.742188 81.621094 307.300781 82.316406 307.300781 C 83.007812 307.300781 83.566406 306.742188 83.566406 306.050781 C 83.566406 305.359375 83.007812 304.796875 82.316406 304.796875 "/><path style=" stroke:none;fill-rule:nonzero;fill:#ffffff;fill-opacity:1;" d="M 77.308594 309.804688 C 76.613281 309.804688 76.054688 310.367188 76.054688 311.058594 C 76.054688 311.75 76.613281 312.3125 77.308594 312.3125 C 77.996094 312.3125 78.558594 311.75 78.558594 311.058594 C 78.558594 310.367188 77.996094 309.804688 77.308594 309.804688 "/><path style=" stroke:none;fill-rule:nonzero;fill:#ffffff;fill-opacity:1;" d="M 72.296875 314.8125 C 71.605469 314.8125 71.046875 315.375 71.046875 316.066406 C 71.046875 316.757812 71.605469 317.320312 72.296875 317.320312 C 72.988281 317.320312 73.550781 316.757812 73.550781 316.066406 C 73.550781 315.375 72.988281 314.8125 72.296875 314.8125 "/><path style=" stroke:none;fill-rule:nonzero;fill:#ffffff;fill-opacity:1;" d="M 67.289062 319.824219 C 66.597656 319.824219 66.039062 320.386719 66.039062 321.074219 C 66.039062 321.765625 66.597656 322.328125 67.289062 322.328125 C 67.980469 322.328125 68.539062 321.765625 68.539062 321.074219 C 68.539062 320.386719 67.980469 319.824219 67.289062 319.824219 "/><path style=" stroke:none;fill-rule:nonzero;fill:#ffffff;fill-opacity:1;" d="M 62.28125 324.832031 C 61.589844 324.832031 61.027344 325.394531 61.027344 326.082031 C 61.027344 326.777344 61.589844 327.335938 62.28125 327.335938 C 62.972656 327.335938 63.53125 326.777344 63.53125 326.082031 C 63.53125 325.394531 62.972656 324.832031 62.28125 324.832031 "/><path style=" stroke:none;fill-rule:nonzero;fill:#ffffff;fill-opacity:1;" d="M 57.269531 329.839844 C 56.582031 329.839844 56.019531 330.402344 56.019531 331.09375 C 56.019531 331.785156 56.582031 332.34375 57.269531 332.34375 C 57.964844 332.34375 58.523438 331.785156 58.523438 331.09375 C 58.523438 330.402344 57.964844 329.839844 57.269531 329.839844 "/><path style=" stroke:none;fill-rule:nonzero;fill:#ffffff;fill-opacity:1;" d="M 52.261719 334.851562 C 51.570312 334.851562 51.011719 335.410156 51.011719 336.101562 C 51.011719 336.792969 51.570312 337.351562 52.261719 337.351562 C 52.957031 337.351562 53.515625 336.792969 53.515625 336.101562 C 53.515625 335.410156 52.957031 334.851562 52.261719 334.851562 "/><path style=" stroke:none;fill-rule:nonzero;fill:#ffffff;fill-opacity:1;" d="M 52.261719 214.644531 C 51.570312 214.644531 51.011719 215.207031 51.011719 215.894531 C 51.011719 216.585938 51.570312 217.148438 52.261719 217.148438 C 52.957031 217.148438 53.515625 216.585938 53.515625 215.894531 C 53.515625 215.207031 52.957031 214.644531 52.261719 214.644531 "/><path style=" stroke:none;fill-rule:nonzero;fill:#ffffff;fill-opacity:1;" d="M 57.269531 219.652344 C 56.582031 219.652344 56.019531 220.214844 56.019531 220.902344 C 56.019531 221.597656 56.582031 222.15625 57.269531 222.15625 C 57.964844 222.15625 58.523438 221.597656 58.523438 220.902344 C 58.523438 220.214844 57.964844 219.652344 57.269531 219.652344 "/><path style=" stroke:none;fill-rule:nonzero;fill:#ffffff;fill-opacity:1;" d="M 62.28125 224.660156 C 61.589844 224.660156 61.027344 225.222656 61.027344 225.914062 C 61.027344 226.605469 61.589844 227.164062 62.28125 227.164062 C 62.972656 227.164062 63.53125 226.605469 63.53125 225.914062 C 63.53125 225.222656 62.972656 224.660156 62.28125 224.660156 "/><path style=" stroke:none;fill-rule:nonzero;fill:#ffffff;fill-opacity:1;" d="M 67.289062 229.671875 C 66.597656 229.671875 66.039062 230.230469 66.039062 230.921875 C 66.039062 231.613281 66.597656 232.171875 67.289062 232.171875 C 67.980469 232.171875 68.539062 231.613281 68.539062 230.921875 C 68.539062 230.230469 67.980469 229.671875 67.289062 229.671875 "/><path style=" stroke:none;fill-rule:nonzero;fill:#ffffff;fill-opacity:1;" d="M 72.296875 234.675781 C 71.605469 234.675781 71.046875 235.238281 71.046875 235.929688 C 71.046875 236.621094 71.605469 237.183594 72.296875 237.183594 C 72.988281 237.183594 73.550781 236.621094 73.550781 235.929688 C 73.550781 235.238281 72.988281 234.675781 72.296875 234.675781 "/><path style=" stroke:none;fill-rule:nonzero;fill:#ffffff;fill-opacity:1;" d="M 77.308594 239.683594 C 76.613281 239.683594 76.054688 240.246094 76.054688 240.9375 C 76.054688 241.628906 76.613281 242.191406 77.308594 242.191406 C 77.996094 242.191406 78.558594 241.628906 78.558594 240.9375 C 78.558594 240.246094 77.996094 239.683594 77.308594 239.683594 "/><path style=" stroke:none;fill-rule:nonzero;fill:#ffffff;fill-opacity:1;" d="M 82.316406 244.695312 C 81.621094 244.695312 81.0625 245.257812 81.0625 245.945312 C 81.0625 246.636719 81.621094 247.199219 82.316406 247.199219 C 83.007812 247.199219 83.566406 246.636719 83.566406 245.945312 C 83.566406 245.257812 83.007812 244.695312 82.316406 244.695312 "/><path style=" stroke:none;fill-rule:nonzero;fill:#ffffff;fill-opacity:1;" d="M 87.324219 249.703125 C 86.632812 249.703125 86.070312 250.265625 86.070312 250.953125 C 86.070312 251.648438 86.632812 252.207031 87.324219 252.207031 C 88.015625 252.207031 88.578125 251.648438 88.578125 250.953125 C 88.578125 250.265625 88.015625 249.703125 87.324219 249.703125 "/><path style=" stroke:none;fill-rule:nonzero;fill:#ffffff;fill-opacity:1;" d="M 92.332031 254.710938 C 91.640625 254.710938 91.078125 255.273438 91.078125 255.964844 C 91.078125 256.65625 91.640625 257.214844 92.332031 257.214844 C 93.023438 257.214844 93.585938 256.65625 93.585938 255.964844 C 93.585938 255.273438 93.023438 254.710938 92.332031 254.710938 "/><path style=" stroke:none;fill-rule:nonzero;fill:#ffffff;fill-opacity:1;" d="M 97.339844 259.722656 C 96.648438 259.722656 96.089844 260.28125 96.089844 260.972656 C 96.089844 261.664062 96.648438 262.222656 97.339844 262.222656 C 98.035156 262.222656 98.59375 261.664062 98.59375 260.972656 C 98.59375 260.28125 98.035156 259.722656 97.339844 259.722656 "/><path style=" stroke:none;fill-rule:nonzero;fill:#ffffff;fill-opacity:1;" d="M 127.390625 289.773438 C 126.699219 289.773438 126.140625 290.335938 126.140625 291.023438 C 126.140625 291.714844 126.699219 292.277344 127.390625 292.277344 C 128.082031 292.277344 128.644531 291.714844 128.644531 291.023438 C 128.644531 290.335938 128.082031 289.773438 127.390625 289.773438 "/><path style=" stroke:none;fill-rule:nonzero;fill:#ffffff;fill-opacity:1;" d="M 132.398438 294.78125 C 131.710938 294.78125 131.148438 295.34375 131.148438 296.03125 C 131.148438 296.726562 131.710938 297.285156 132.398438 297.285156 C 133.09375 297.285156 133.652344 296.726562 133.652344 296.03125 C 133.652344 295.34375 133.09375 294.78125 132.398438 294.78125 "/><path style=" stroke:none;fill-rule:nonzero;fill:#ffffff;fill-opacity:1;" d="M 137.410156 299.789062 C 136.71875 299.789062 136.15625 300.351562 136.15625 301.042969 C 136.15625 301.734375 136.71875 302.292969 137.410156 302.292969 C 138.101562 302.292969 138.660156 301.734375 138.660156 301.042969 C 138.660156 300.351562 138.101562 299.789062 137.410156 299.789062 "/><path style=" stroke:none;fill-rule:nonzero;fill:#ffffff;fill-opacity:1;" d="M 142.417969 304.796875 C 141.726562 304.796875 141.167969 305.359375 141.167969 306.050781 C 141.167969 306.742188 141.726562 307.300781 142.417969 307.300781 C 143.109375 307.300781 143.667969 306.742188 143.667969 306.050781 C 143.667969 305.359375 143.109375 304.796875 142.417969 304.796875 "/><path style=" stroke:none;fill-rule:nonzero;fill:#ffffff;fill-opacity:1;" d="M 147.425781 309.804688 C 146.734375 309.804688 146.175781 310.367188 146.175781 311.058594 C 146.175781 311.75 146.734375 312.3125 147.425781 312.3125 C 148.117188 312.3125 148.679688 311.75 148.679688 311.058594 C 148.679688 310.367188 148.117188 309.804688 147.425781 309.804688 "/><path style=" stroke:none;fill-rule:nonzero;fill:#ffffff;fill-opacity:1;" d="M 152.4375 314.8125 C 151.742188 314.8125 151.183594 315.375 151.183594 316.066406 C 151.183594 316.757812 151.742188 317.320312 152.4375 317.320312 C 153.125 317.320312 153.6875 316.757812 153.6875 316.066406 C 153.6875 315.375 153.125 314.8125 152.4375 314.8125 "/><path style=" stroke:none;fill-rule:nonzero;fill:#ffffff;fill-opacity:1;" d="M 157.445312 319.824219 C 156.75 319.824219 156.191406 320.386719 156.191406 321.074219 C 156.191406 321.765625 156.75 322.328125 157.445312 322.328125 C 158.132812 322.328125 158.695312 321.765625 158.695312 321.074219 C 158.695312 320.386719 158.132812 319.824219 157.445312 319.824219 "/><path style=" stroke:none;fill-rule:nonzero;fill:#ffffff;fill-opacity:1;" d="M 162.453125 324.832031 C 161.761719 324.832031 161.199219 325.394531 161.199219 326.082031 C 161.199219 326.777344 161.761719 327.335938 162.453125 327.335938 C 163.144531 327.335938 163.707031 326.777344 163.707031 326.082031 C 163.707031 325.394531 163.144531 324.832031 162.453125 324.832031 "/><path style=" stroke:none;fill-rule:nonzero;fill:#ffffff;fill-opacity:1;" d="M 167.460938 329.839844 C 166.769531 329.839844 166.207031 330.402344 166.207031 331.09375 C 166.207031 331.785156 166.769531 332.34375 167.460938 332.34375 C 168.152344 332.34375 168.714844 331.785156 168.714844 331.09375 C 168.714844 330.402344 168.152344 329.839844 167.460938 329.839844 "/><path style=" stroke:none;fill-rule:nonzero;fill:#ffffff;fill-opacity:1;" d="M 172.46875 334.851562 C 171.777344 334.851562 171.21875 335.410156 171.21875 336.101562 C 171.21875 336.792969 171.777344 337.351562 172.46875 337.351562 C 173.160156 337.351562 173.722656 336.792969 173.722656 336.101562 C 173.722656 335.410156 173.160156 334.851562 172.46875 334.851562 "/><path style=" stroke:none;fill-rule:nonzero;fill:#ffffff;fill-opacity:1;" d="M 322.726562 214.644531 C 322.039062 214.644531 321.476562 215.207031 321.476562 215.894531 C 321.476562 216.585938 322.039062 217.148438 322.726562 217.148438 C 323.417969 217.148438 323.980469 216.585938 323.980469 215.894531 C 323.980469 215.207031 323.417969 214.644531 322.726562 214.644531 "/><path style=" stroke:none;fill-rule:nonzero;fill:#ffffff;fill-opacity:1;" d="M 317.71875 219.652344 C 317.027344 219.652344 316.464844 220.214844 316.464844 220.902344 C 316.464844 221.597656 317.027344 222.15625 317.71875 222.15625 C 318.410156 222.15625 318.972656 221.597656 318.972656 220.902344 C 318.972656 220.214844 318.410156 219.652344 317.71875 219.652344 "/><path style=" stroke:none;fill-rule:nonzero;fill:#ffffff;fill-opacity:1;" d="M 312.710938 224.660156 C 312.019531 224.660156 311.457031 225.222656 311.457031 225.914062 C 311.457031 226.605469 312.019531 227.164062 312.710938 227.164062 C 313.402344 227.164062 313.964844 226.605469 313.964844 225.914062 C 313.964844 225.222656 313.402344 224.660156 312.710938 224.660156 "/><path style=" stroke:none;fill-rule:nonzero;fill:#ffffff;fill-opacity:1;" d="M 307.703125 229.671875 C 307.011719 229.671875 306.449219 230.230469 306.449219 230.921875 C 306.449219 231.613281 307.011719 232.171875 307.703125 232.171875 C 308.390625 232.171875 308.953125 231.613281 308.953125 230.921875 C 308.953125 230.230469 308.390625 229.671875 307.703125 229.671875 "/><path style=" stroke:none;fill-rule:nonzero;fill:#ffffff;fill-opacity:1;" d="M 302.695312 234.675781 C 302 234.675781 301.441406 235.238281 301.441406 235.929688 C 301.441406 236.621094 302 237.183594 302.695312 237.183594 C 303.382812 237.183594 303.945312 236.621094 303.945312 235.929688 C 303.945312 235.238281 303.382812 234.675781 302.695312 234.675781 "/><path style=" stroke:none;fill-rule:nonzero;fill:#ffffff;fill-opacity:1;" d="M 297.683594 239.683594 C 296.992188 239.683594 296.433594 240.246094 296.433594 240.9375 C 296.433594 241.628906 296.992188 242.191406 297.683594 242.191406 C 298.375 242.191406 298.9375 241.628906 298.9375 240.9375 C 298.9375 240.246094 298.375 239.683594 297.683594 239.683594 "/><path style=" stroke:none;fill-rule:nonzero;fill:#ffffff;fill-opacity:1;" d="M 292.675781 244.695312 C 291.984375 244.695312 291.425781 245.257812 291.425781 245.945312 C 291.425781 246.636719 291.984375 247.199219 292.675781 247.199219 C 293.367188 247.199219 293.925781 246.636719 293.925781 245.945312 C 293.925781 245.257812 293.367188 244.695312 292.675781 244.695312 "/><path style=" stroke:none;fill-rule:nonzero;fill:#ffffff;fill-opacity:1;" d="M 287.667969 249.703125 C 286.976562 249.703125 286.414062 250.265625 286.414062 250.953125 C 286.414062 251.648438 286.976562 252.207031 287.667969 252.207031 C 288.359375 252.207031 288.917969 251.648438 288.917969 250.953125 C 288.917969 250.265625 288.359375 249.703125 287.667969 249.703125 "/><path style=" stroke:none;fill-rule:nonzero;fill:#ffffff;fill-opacity:1;" d="M 282.65625 254.710938 C 281.96875 254.710938 281.40625 255.273438 281.40625 255.964844 C 281.40625 256.65625 281.96875 257.214844 282.65625 257.214844 C 283.351562 257.214844 283.910156 256.65625 283.910156 255.964844 C 283.910156 255.273438 283.351562 254.710938 282.65625 254.710938 "/><path style=" stroke:none;fill-rule:nonzero;fill:#ffffff;fill-opacity:1;" d="M 277.648438 259.722656 C 276.960938 259.722656 276.398438 260.28125 276.398438 260.972656 C 276.398438 261.664062 276.960938 262.222656 277.648438 262.222656 C 278.339844 262.222656 278.902344 261.664062 278.902344 260.972656 C 278.902344 260.28125 278.339844 259.722656 277.648438 259.722656 "/><path style=" stroke:none;fill-rule:nonzero;fill:#ffffff;fill-opacity:1;" d="M 247.597656 289.773438 C 246.910156 289.773438 246.347656 290.335938 246.347656 291.023438 C 246.347656 291.714844 246.910156 292.277344 247.597656 292.277344 C 248.289062 292.277344 248.851562 291.714844 248.851562 291.023438 C 248.851562 290.335938 248.289062 289.773438 247.597656 289.773438 "/><path style=" stroke:none;fill-rule:nonzero;fill:#ffffff;fill-opacity:1;" d="M 242.589844 294.78125 C 241.898438 294.78125 241.335938 295.34375 241.335938 296.03125 C 241.335938 296.726562 241.898438 297.285156 242.589844 297.285156 C 243.28125 297.285156 243.84375 296.726562 243.84375 296.03125 C 243.84375 295.34375 243.28125 294.78125 242.589844 294.78125 "/><path style=" stroke:none;fill-rule:nonzero;fill:#ffffff;fill-opacity:1;" d="M 237.582031 299.789062 C 236.890625 299.789062 236.328125 300.351562 236.328125 301.042969 C 236.328125 301.734375 236.890625 302.292969 237.582031 302.292969 C 238.273438 302.292969 238.835938 301.734375 238.835938 301.042969 C 238.835938 300.351562 238.273438 299.789062 237.582031 299.789062 "/><path style=" stroke:none;fill-rule:nonzero;fill:#ffffff;fill-opacity:1;" d="M 232.574219 304.796875 C 231.882812 304.796875 231.320312 305.359375 231.320312 306.050781 C 231.320312 306.742188 231.882812 307.300781 232.574219 307.300781 C 233.261719 307.300781 233.824219 306.742188 233.824219 306.050781 C 233.824219 305.359375 233.261719 304.796875 232.574219 304.796875 "/><path style=" stroke:none;fill-rule:nonzero;fill:#ffffff;fill-opacity:1;" d="M 227.566406 309.804688 C 226.871094 309.804688 226.3125 310.367188 226.3125 311.058594 C 226.3125 311.75 226.871094 312.3125 227.566406 312.3125 C 228.253906 312.3125 228.816406 311.75 228.816406 311.058594 C 228.816406 310.367188 228.253906 309.804688 227.566406 309.804688 "/><path style=" stroke:none;fill-rule:nonzero;fill:#ffffff;fill-opacity:1;" d="M 222.554688 314.8125 C 221.863281 314.8125 221.304688 315.375 221.304688 316.066406 C 221.304688 316.757812 221.863281 317.320312 222.554688 317.320312 C 223.246094 317.320312 223.808594 316.757812 223.808594 316.066406 C 223.808594 315.375 223.246094 314.8125 222.554688 314.8125 "/><path style=" stroke:none;fill-rule:nonzero;fill:#ffffff;fill-opacity:1;" d="M 217.546875 319.824219 C 216.855469 319.824219 216.296875 320.386719 216.296875 321.074219 C 216.296875 321.765625 216.855469 322.328125 217.546875 322.328125 C 218.238281 322.328125 218.796875 321.765625 218.796875 321.074219 C 218.796875 320.386719 218.238281 319.824219 217.546875 319.824219 "/><path style=" stroke:none;fill-rule:nonzero;fill:#ffffff;fill-opacity:1;" d="M 212.539062 324.832031 C 211.847656 324.832031 211.285156 325.394531 211.285156 326.082031 C 211.285156 326.777344 211.847656 327.335938 212.539062 327.335938 C 213.230469 327.335938 213.789062 326.777344 213.789062 326.082031 C 213.789062 325.394531 213.230469 324.832031 212.539062 324.832031 "/><path style=" stroke:none;fill-rule:nonzero;fill:#ffffff;fill-opacity:1;" d="M 207.527344 329.839844 C 206.839844 329.839844 206.277344 330.402344 206.277344 331.09375 C 206.277344 331.785156 206.839844 332.34375 207.527344 332.34375 C 208.222656 332.34375 208.78125 331.785156 208.78125 331.09375 C 208.78125 330.402344 208.222656 329.839844 207.527344 329.839844 "/><path style=" stroke:none;fill-rule:nonzero;fill:#ffffff;fill-opacity:1;" d="M 202.519531 334.851562 C 201.832031 334.851562 201.269531 335.410156 201.269531 336.101562 C 201.269531 336.792969 201.832031 337.351562 202.519531 337.351562 C 203.210938 337.351562 203.773438 336.792969 203.773438 336.101562 C 203.773438 335.410156 203.210938 334.851562 202.519531 334.851562 "/><path style=" stroke:none;fill-rule:nonzero;fill:#ffffff;fill-opacity:1;" d="M 202.519531 214.644531 C 201.832031 214.644531 201.269531 215.207031 201.269531 215.894531 C 201.269531 216.585938 201.832031 217.148438 202.519531 217.148438 C 203.210938 217.148438 203.773438 216.585938 203.773438 215.894531 C 203.773438 215.207031 203.210938 214.644531 202.519531 214.644531 "/><path style=" stroke:none;fill-rule:nonzero;fill:#ffffff;fill-opacity:1;" d="M 207.527344 219.652344 C 206.839844 219.652344 206.277344 220.214844 206.277344 220.902344 C 206.277344 221.597656 206.839844 222.15625 207.527344 222.15625 C 208.222656 222.15625 208.78125 221.597656 208.78125 220.902344 C 208.78125 220.214844 208.222656 219.652344 207.527344 219.652344 "/><path style=" stroke:none;fill-rule:nonzero;fill:#ffffff;fill-opacity:1;" d="M 212.539062 224.660156 C 211.847656 224.660156 211.285156 225.222656 211.285156 225.914062 C 211.285156 226.605469 211.847656 227.164062 212.539062 227.164062 C 213.230469 227.164062 213.789062 226.605469 213.789062 225.914062 C 213.789062 225.222656 213.230469 224.660156 212.539062 224.660156 "/><path style=" stroke:none;fill-rule:nonzero;fill:#ffffff;fill-opacity:1;" d="M 217.546875 229.671875 C 216.855469 229.671875 216.296875 230.230469 216.296875 230.921875 C 216.296875 231.613281 216.855469 232.171875 217.546875 232.171875 C 218.238281 232.171875 218.796875 231.613281 218.796875 230.921875 C 218.796875 230.230469 218.238281 229.671875 217.546875 229.671875 "/><path style=" stroke:none;fill-rule:nonzero;fill:#ffffff;fill-opacity:1;" d="M 222.554688 234.675781 C 221.863281 234.675781 221.304688 235.238281 221.304688 235.929688 C 221.304688 236.621094 221.863281 237.183594 222.554688 237.183594 C 223.246094 237.183594 223.808594 236.621094 223.808594 235.929688 C 223.808594 235.238281 223.246094 234.675781 222.554688 234.675781 "/><path style=" stroke:none;fill-rule:nonzero;fill:#ffffff;fill-opacity:1;" d="M 227.566406 239.683594 C 226.871094 239.683594 226.3125 240.246094 226.3125 240.9375 C 226.3125 241.628906 226.871094 242.191406 227.566406 242.191406 C 228.253906 242.191406 228.816406 241.628906 228.816406 240.9375 C 228.816406 240.246094 228.253906 239.683594 227.566406 239.683594 "/><path style=" stroke:none;fill-rule:nonzero;fill:#ffffff;fill-opacity:1;" d="M 232.574219 244.695312 C 231.882812 244.695312 231.320312 245.257812 231.320312 245.945312 C 231.320312 246.636719 231.882812 247.199219 232.574219 247.199219 C 233.261719 247.199219 233.824219 246.636719 233.824219 245.945312 C 233.824219 245.257812 233.261719 244.695312 232.574219 244.695312 "/><path style=" stroke:none;fill-rule:nonzero;fill:#ffffff;fill-opacity:1;" d="M 237.582031 249.703125 C 236.890625 249.703125 236.328125 250.265625 236.328125 250.953125 C 236.328125 251.648438 236.890625 252.207031 237.582031 252.207031 C 238.273438 252.207031 238.835938 251.648438 238.835938 250.953125 C 238.835938 250.265625 238.273438 249.703125 237.582031 249.703125 "/><path style=" stroke:none;fill-rule:nonzero;fill:#ffffff;fill-opacity:1;" d="M 242.589844 254.710938 C 241.898438 254.710938 241.335938 255.273438 241.335938 255.964844 C 241.335938 256.65625 241.898438 257.214844 242.589844 257.214844 C 243.28125 257.214844 243.84375 256.65625 243.84375 255.964844 C 243.84375 255.273438 243.28125 254.710938 242.589844 254.710938 "/><path style=" stroke:none;fill-rule:nonzero;fill:#ffffff;fill-opacity:1;" d="M 247.597656 259.722656 C 246.910156 259.722656 246.347656 260.28125 246.347656 260.972656 C 246.347656 261.664062 246.910156 262.222656 247.597656 262.222656 C 248.289062 262.222656 248.851562 261.664062 248.851562 260.972656 C 248.851562 260.28125 248.289062 259.722656 247.597656 259.722656 "/><path style=" stroke:none;fill-rule:nonzero;fill:#ffffff;fill-opacity:1;" d="M 277.648438 289.773438 C 276.960938 289.773438 276.398438 290.335938 276.398438 291.023438 C 276.398438 291.714844 276.960938 292.277344 277.648438 292.277344 C 278.339844 292.277344 278.902344 291.714844 278.902344 291.023438 C 278.902344 290.335938 278.339844 289.773438 277.648438 289.773438 "/><path style=" stroke:none;fill-rule:nonzero;fill:#ffffff;fill-opacity:1;" d="M 282.65625 294.78125 C 281.96875 294.78125 281.40625 295.34375 281.40625 296.03125 C 281.40625 296.726562 281.96875 297.285156 282.65625 297.285156 C 283.351562 297.285156 283.910156 296.726562 283.910156 296.03125 C 283.910156 295.34375 283.351562 294.78125 282.65625 294.78125 "/><path style=" stroke:none;fill-rule:nonzero;fill:#ffffff;fill-opacity:1;" d="M 287.667969 299.789062 C 286.976562 299.789062 286.414062 300.351562 286.414062 301.042969 C 286.414062 301.734375 286.976562 302.292969 287.667969 302.292969 C 288.359375 302.292969 288.917969 301.734375 288.917969 301.042969 C 288.917969 300.351562 288.359375 299.789062 287.667969 299.789062 "/><path style=" stroke:none;fill-rule:nonzero;fill:#ffffff;fill-opacity:1;" d="M 292.675781 304.796875 C 291.984375 304.796875 291.425781 305.359375 291.425781 306.050781 C 291.425781 306.742188 291.984375 307.300781 292.675781 307.300781 C 293.367188 307.300781 293.925781 306.742188 293.925781 306.050781 C 293.925781 305.359375 293.367188 304.796875 292.675781 304.796875 "/><path style=" stroke:none;fill-rule:nonzero;fill:#ffffff;fill-opacity:1;" d="M 297.683594 309.804688 C 296.992188 309.804688 296.433594 310.367188 296.433594 311.058594 C 296.433594 311.75 296.992188 312.3125 297.683594 312.3125 C 298.375 312.3125 298.9375 311.75 298.9375 311.058594 C 298.9375 310.367188 298.375 309.804688 297.683594 309.804688 "/><path style=" stroke:none;fill-rule:nonzero;fill:#ffffff;fill-opacity:1;" d="M 302.695312 314.8125 C 302 314.8125 301.441406 315.375 301.441406 316.066406 C 301.441406 316.757812 302 317.320312 302.695312 317.320312 C 303.382812 317.320312 303.945312 316.757812 303.945312 316.066406 C 303.945312 315.375 303.382812 314.8125 302.695312 314.8125 "/><path style=" stroke:none;fill-rule:nonzero;fill:#ffffff;fill-opacity:1;" d="M 307.703125 319.824219 C 307.011719 319.824219 306.449219 320.386719 306.449219 321.074219 C 306.449219 321.765625 307.011719 322.328125 307.703125 322.328125 C 308.390625 322.328125 308.953125 321.765625 308.953125 321.074219 C 308.953125 320.386719 308.390625 319.824219 307.703125 319.824219 "/><path style=" stroke:none;fill-rule:nonzero;fill:#ffffff;fill-opacity:1;" d="M 312.710938 324.832031 C 312.019531 324.832031 311.457031 325.394531 311.457031 326.082031 C 311.457031 326.777344 312.019531 327.335938 312.710938 327.335938 C 313.402344 327.335938 313.964844 326.777344 313.964844 326.082031 C 313.964844 325.394531 313.402344 324.832031 312.710938 324.832031 "/><path style=" stroke:none;fill-rule:nonzero;fill:#ffffff;fill-opacity:1;" d="M 317.71875 329.839844 C 317.027344 329.839844 316.464844 330.402344 316.464844 331.09375 C 316.464844 331.785156 317.027344 332.34375 317.71875 332.34375 C 318.410156 332.34375 318.972656 331.785156 318.972656 331.09375 C 318.972656 330.402344 318.410156 329.839844 317.71875 329.839844 "/><path style=" stroke:none;fill-rule:nonzero;fill:#ffffff;fill-opacity:1;" d="M 322.726562 334.851562 C 322.039062 334.851562 321.476562 335.410156 321.476562 336.101562 C 321.476562 336.792969 322.039062 337.351562 322.726562 337.351562 C 323.417969 337.351562 323.980469 336.792969 323.980469 336.101562 C 323.980469 335.410156 323.417969 334.851562 322.726562 334.851562 "/><g clip-rule="nonzero" clip-path="url(#6c06f27277)"><path style=" stroke:none;fill-rule:nonzero;fill:#ffffff;fill-opacity:1;" d="M 334.871094 335.246094 C 334.871094 336.632812 335.722656 337.808594 336.90625 338.242188 C 336.949219 339.113281 336.886719 339.390625 336.59375 339.511719 C 335.507812 339.960938 331.234375 339.136719 331.921875 339.394531 L 331.921875 341.300781 C 331.253906 341.460938 335.625 340.691406 336.289062 341.535156 C 337.167969 342.644531 337.121094 346.488281 336.742188 351.128906 L 337.753906 351.128906 L 337.753906 336.632812 C 337.089844 336.550781 336.574219 335.960938 336.574219 335.246094 C 336.574219 334.53125 337.089844 333.941406 337.753906 333.859375 L 337.753906 332.082031 C 336.148438 332.171875 334.871094 333.550781 334.871094 335.246094 "/></g><g clip-rule="nonzero" clip-path="url(#424ed747ad)"><path style=" stroke:none;fill-rule:nonzero;fill:#ffffff;fill-opacity:1;" d="M 323.808594 350.546875 C 323.65625 350.246094 323.539062 350.558594 323.449219 351.128906 L 324.101562 351.128906 C 324.015625 350.953125 323.917969 350.761719 323.808594 350.546875 "/></g><g clip-rule="nonzero" clip-path="url(#1bdb20c8ee)"><path style=" stroke:none;fill-rule:nonzero;fill:#ffffff;fill-opacity:1;" d="M 173.550781 350.546875 C 173.398438 350.246094 173.28125 350.558594 173.191406 351.128906 L 173.84375 351.128906 C 173.757812 350.953125 173.660156 350.761719 173.550781 350.546875 "/></g><g clip-rule="nonzero" clip-path="url(#c87b63b721)"><path style=" stroke:none;fill-rule:nonzero;fill:#ffffff;fill-opacity:1;" d="M 187.65625 336.644531 C 186.914062 336.644531 186.316406 336.019531 186.316406 335.246094 C 186.316406 334.476562 186.914062 333.847656 187.65625 333.847656 C 188.398438 333.847656 189.003906 334.476562 189.003906 335.246094 C 189.003906 336.019531 188.398438 336.644531 187.65625 336.644531 Z M 189.292969 341.652344 C 189.914062 340.871094 193.175781 341.519531 193.550781 341.300781 L 193.550781 339.394531 C 193.335938 339.128906 190.144531 339.929688 189.105469 339.511719 C 188.804688 339.390625 188.640625 338.988281 188.734375 338.21875 C 189.886719 337.765625 190.816406 336.488281 190.816406 335.128906 C 190.816406 333.375 189.339844 332.074219 187.65625 332.074219 C 185.976562 332.074219 184.613281 333.492188 184.613281 335.246094 C 184.613281 336.632812 185.464844 337.808594 186.648438 338.242188 C 186.691406 339.113281 186.628906 339.390625 186.335938 339.511719 C 185.25 339.960938 180.976562 339.136719 181.664062 339.394531 L 181.664062 341.300781 C 180.996094 341.460938 185.367188 340.691406 186.03125 341.535156 C 186.910156 342.644531 186.863281 346.488281 186.484375 351.128906 L 189.007812 351.128906 C 188.765625 346.367188 188.769531 342.320312 189.292969 341.652344 "/></g><g clip-rule="nonzero" clip-path="url(#e9f3d716c7)"><path style=" stroke:none;fill-rule:nonzero;fill:#ffffff;fill-opacity:1;" d="M 201.328125 350.664062 C 201.265625 350.820312 201.199219 350.976562 201.125 351.128906 L 201.570312 351.128906 C 201.484375 350.691406 201.398438 350.46875 201.328125 350.664062 "/></g><g clip-rule="nonzero" clip-path="url(#ab7442ffe6)"><path style=" stroke:none;fill-rule:nonzero;fill:#ffffff;fill-opacity:1;" d="M 39.035156 341.652344 C 39.65625 340.871094 42.917969 341.519531 43.296875 341.300781 L 43.296875 339.394531 C 43.078125 339.128906 39.886719 339.929688 38.847656 339.511719 C 38.546875 339.390625 38.382812 338.988281 38.476562 338.21875 C 39.628906 337.765625 40.558594 336.488281 40.558594 335.128906 C 40.558594 333.375 39.082031 332.074219 37.398438 332.074219 C 37.347656 332.074219 37.292969 332.085938 37.238281 332.089844 L 37.238281 333.863281 C 37.292969 333.855469 37.347656 333.847656 37.398438 333.847656 C 38.140625 333.847656 38.746094 334.476562 38.746094 335.246094 C 38.746094 336.019531 38.140625 336.644531 37.398438 336.644531 C 37.347656 336.644531 37.292969 336.636719 37.238281 336.628906 L 37.238281 351.128906 L 38.746094 351.128906 C 38.507812 346.367188 38.511719 342.320312 39.035156 341.652344 "/></g><g clip-rule="nonzero" clip-path="url(#aa29cd059a)"><path style=" stroke:none;fill-rule:nonzero;fill:#ffffff;fill-opacity:1;" d="M 51.066406 350.664062 C 51.007812 350.820312 50.941406 350.976562 50.867188 351.128906 L 51.3125 351.128906 C 51.226562 350.691406 51.140625 350.46875 51.066406 350.664062 "/></g><path style=" stroke:none;fill-rule:nonzero;fill:#ffffff;fill-opacity:1;" d="M 264.132812 137.613281 C 264.132812 138.386719 263.527344 139.011719 262.785156 139.011719 C 262.042969 139.011719 261.445312 138.386719 261.445312 137.613281 C 261.445312 136.839844 262.042969 136.214844 262.785156 136.214844 C 263.527344 136.214844 264.132812 136.839844 264.132812 137.613281 Z M 277.179688 117.609375 C 277.179688 117.609375 275.945312 118.632812 275.867188 118.222656 C 274.929688 113.289062 269.957031 109.941406 264.304688 108.570312 C 263.507812 108.378906 262.890625 106.859375 262.890625 106.859375 C 262.890625 106.859375 262.875 106.621094 262.851562 106.703125 C 262.824219 106.621094 262.808594 106.859375 262.808594 106.859375 C 262.808594 106.859375 262.078125 108.378906 261.285156 108.570312 C 255.628906 109.941406 250.207031 113.40625 249.269531 118.339844 C 249.191406 118.75 248.070312 118.082031 248.070312 118.082031 C 248.070312 118.082031 248.199219 123.269531 248.679688 122.3125 C 249.820312 120.046875 249.855469 120.042969 251.238281 118.636719 C 251.238281 118.636719 250.050781 118.769531 250.058594 118.457031 C 250.085938 117.054688 255.480469 112.753906 258.476562 112.195312 C 259.425781 112.019531 260.625 112.207031 260.730469 113.113281 C 261.613281 120.902344 262.550781 129.5625 261.160156 131.328125 C 260.496094 132.167969 256.125 131.402344 256.792969 131.5625 L 256.792969 133.46875 C 256.105469 133.722656 260.378906 132.898438 261.464844 133.347656 C 261.757812 133.46875 261.820312 133.75 261.777344 134.621094 C 260.59375 135.050781 259.742188 136.226562 259.742188 137.613281 C 259.742188 139.367188 261.105469 140.789062 262.785156 140.789062 C 264.46875 140.789062 265.945312 139.484375 265.945312 137.730469 C 265.945312 136.375 265.015625 135.097656 263.863281 134.644531 C 263.769531 133.875 263.933594 133.46875 264.234375 133.347656 C 265.273438 132.933594 268.464844 133.730469 268.679688 133.46875 L 268.679688 131.5625 C 268.304688 131.34375 265.042969 131.992188 264.421875 131.207031 C 263.589844 130.15625 264.066406 120.644531 264.746094 113.230469 C 264.808594 112.5625 266.34375 112.03125 267.222656 112.195312 C 270.21875 112.753906 275.050781 116.9375 275.078125 118.339844 C 275.085938 118.652344 273.898438 118.515625 273.898438 118.515625 C 273.898438 118.515625 275.722656 120.28125 276.457031 122.195312 C 276.738281 122.9375 277.179688 117.609375 277.179688 117.609375 "/><path style=" stroke:none;fill-rule:nonzero;fill:#ffffff;fill-opacity:1;" d="M 113.875 137.613281 C 113.875 138.386719 113.269531 139.011719 112.527344 139.011719 C 111.785156 139.011719 111.1875 138.386719 111.1875 137.613281 C 111.1875 136.839844 111.785156 136.214844 112.527344 136.214844 C 113.269531 136.214844 113.875 136.839844 113.875 137.613281 Z M 126.921875 117.609375 C 126.921875 117.609375 125.6875 118.632812 125.609375 118.222656 C 124.671875 113.289062 119.699219 109.941406 114.046875 108.570312 C 113.25 108.378906 112.632812 106.859375 112.632812 106.859375 C 112.632812 106.859375 112.617188 106.621094 112.59375 106.703125 C 112.566406 106.621094 112.550781 106.859375 112.550781 106.859375 C 112.550781 106.859375 111.820312 108.378906 111.027344 108.570312 C 105.371094 109.941406 99.949219 113.40625 99.011719 118.339844 C 98.933594 118.75 97.8125 118.082031 97.8125 118.082031 C 97.8125 118.082031 97.941406 123.269531 98.421875 122.3125 C 99.5625 120.046875 99.59375 120.042969 100.980469 118.636719 C 100.980469 118.636719 99.792969 118.769531 99.800781 118.457031 C 99.828125 117.054688 105.222656 112.753906 108.21875 112.195312 C 109.167969 112.019531 110.367188 112.207031 110.472656 113.113281 C 111.355469 120.902344 112.292969 129.5625 110.902344 131.328125 C 110.238281 132.167969 105.867188 131.402344 106.535156 131.5625 L 106.535156 133.46875 C 105.847656 133.722656 110.121094 132.898438 111.207031 133.347656 C 111.5 133.46875 111.5625 133.75 111.519531 134.621094 C 110.335938 135.050781 109.484375 136.226562 109.484375 137.613281 C 109.484375 139.367188 110.847656 140.789062 112.527344 140.789062 C 114.210938 140.789062 115.6875 139.484375 115.6875 137.730469 C 115.6875 136.375 114.757812 135.097656 113.605469 134.644531 C 113.511719 133.875 113.675781 133.46875 113.976562 133.347656 C 115.015625 132.933594 118.207031 133.730469 118.425781 133.46875 L 118.425781 131.5625 C 118.046875 131.34375 114.785156 131.992188 114.164062 131.207031 C 113.332031 130.15625 113.808594 120.644531 114.488281 113.230469 C 114.550781 112.5625 116.085938 112.03125 116.964844 112.195312 C 119.960938 112.753906 124.792969 116.9375 124.820312 118.339844 C 124.828125 118.652344 123.640625 118.515625 123.640625 118.515625 C 123.640625 118.515625 125.464844 120.28125 126.195312 122.195312 C 126.480469 122.9375 126.921875 117.609375 126.921875 117.609375 "/><g clip-rule="nonzero" clip-path="url(#a04658fcb6)"><path style=" stroke:none;fill-rule:nonzero;fill:#ffffff;fill-opacity:1;" d="M 336.742188 50.613281 C 336.519531 53.34375 336.183594 56.34375 335.859375 59.230469 C 335.753906 60.140625 334.554688 60.324219 333.605469 60.152344 C 330.609375 59.59375 325.214844 55.292969 325.1875 53.882812 C 325.179688 53.574219 326.367188 53.710938 326.367188 53.710938 C 325.117188 52.4375 324.960938 52.296875 324.101562 50.613281 L 323.449219 50.613281 C 323.261719 51.839844 323.199219 54.261719 323.199219 54.261719 C 323.199219 54.261719 324.320312 53.597656 324.398438 54.003906 C 325.335938 58.9375 330.757812 62.402344 336.414062 63.773438 C 336.964844 63.90625 337.484375 64.679688 337.753906 65.140625 L 337.753906 50.613281 L 336.742188 50.613281 "/></g><g clip-rule="nonzero" clip-path="url(#2d34eb60ea)"><path style=" stroke:none;fill-rule:nonzero;fill:#ffffff;fill-opacity:1;" d="M 174.140625 54.003906 C 175.078125 58.9375 180.5 62.402344 186.15625 63.773438 C 186.949219 63.964844 187.679688 65.484375 187.679688 65.484375 C 187.679688 65.484375 187.695312 65.722656 187.722656 65.640625 C 187.746094 65.722656 187.761719 65.484375 187.761719 65.484375 C 187.761719 65.484375 188.378906 63.964844 189.175781 63.773438 C 194.828125 62.402344 199.800781 59.054688 200.738281 54.121094 C 200.816406 53.714844 202.050781 54.738281 202.050781 54.738281 C 202.050781 54.738281 201.808594 51.832031 201.566406 50.613281 L 201.117188 50.613281 C 200.296875 52.335938 198.769531 53.828125 198.769531 53.828125 C 198.769531 53.828125 199.957031 53.695312 199.949219 54.003906 C 199.921875 55.410156 195.089844 59.59375 192.09375 60.152344 C 191.214844 60.316406 189.679688 59.78125 189.617188 59.113281 C 189.367188 56.386719 189.144531 53.378906 189.007812 50.613281 L 186.484375 50.613281 C 186.261719 53.34375 185.925781 56.34375 185.601562 59.230469 C 185.496094 60.140625 184.296875 60.324219 183.347656 60.152344 C 180.351562 59.59375 174.957031 55.292969 174.929688 53.882812 C 174.921875 53.574219 176.109375 53.710938 176.109375 53.710938 C 174.859375 52.4375 174.703125 52.296875 173.84375 50.613281 L 173.191406 50.613281 C 173.003906 51.839844 172.941406 54.261719 172.941406 54.261719 C 172.941406 54.261719 174.0625 53.597656 174.140625 54.003906 "/></g><g clip-rule="nonzero" clip-path="url(#d7f1d2e9cc)"><path style=" stroke:none;fill-rule:nonzero;fill:#ffffff;fill-opacity:1;" d="M 37.464844 65.640625 C 37.488281 65.722656 37.503906 65.484375 37.503906 65.484375 C 37.503906 65.484375 38.121094 63.964844 38.917969 63.773438 C 44.570312 62.402344 49.542969 59.054688 50.480469 54.121094 C 50.558594 53.714844 51.792969 54.738281 51.792969 54.738281 C 51.792969 54.738281 51.550781 51.832031 51.308594 50.613281 L 50.859375 50.613281 C 50.039062 52.335938 48.511719 53.828125 48.511719 53.828125 C 48.511719 53.828125 49.699219 53.695312 49.691406 54.003906 C 49.664062 55.410156 44.832031 59.59375 41.835938 60.152344 C 40.960938 60.316406 39.421875 59.78125 39.359375 59.113281 C 39.109375 56.386719 38.886719 53.378906 38.75 50.613281 L 37.238281 50.613281 L 37.238281 65.140625 C 37.351562 65.34375 37.421875 65.484375 37.421875 65.484375 C 37.421875 65.484375 37.4375 65.722656 37.464844 65.640625 "/></g><g clip-rule="nonzero" clip-path="url(#98248bd310)"><path style=" stroke:none;fill-rule:nonzero;fill:#ffffff;fill-opacity:1;" d="M 336.574219 184.988281 C 336.574219 184.273438 337.089844 183.683594 337.753906 183.601562 L 337.753906 181.824219 C 336.148438 181.914062 334.871094 183.292969 334.871094 184.988281 C 334.871094 186.375 335.722656 187.550781 336.90625 187.984375 C 336.949219 188.855469 336.886719 189.132812 336.59375 189.253906 C 335.507812 189.707031 331.234375 188.878906 331.921875 189.136719 L 331.921875 191.042969 C 331.253906 191.203125 335.625 190.433594 336.289062 191.277344 C 337.679688 193.039062 336.742188 201.699219 335.859375 209.488281 C 335.753906 210.398438 334.554688 210.582031 333.605469 210.410156 C 330.609375 209.851562 325.214844 205.550781 325.1875 204.140625 C 325.179688 203.832031 326.367188 203.964844 326.367188 203.964844 C 324.984375 202.558594 324.949219 202.554688 323.808594 200.289062 C 323.328125 199.332031 323.199219 204.519531 323.199219 204.519531 C 323.199219 204.519531 324.320312 203.855469 324.398438 204.261719 C 325.335938 209.195312 330.757812 212.660156 336.414062 214.03125 C 336.964844 214.164062 337.484375 214.9375 337.753906 215.398438 L 337.753906 186.375 C 337.089844 186.292969 336.574219 185.707031 336.574219 184.988281 "/></g><path style=" stroke:none;fill-rule:nonzero;fill:#ffffff;fill-opacity:1;" d="M 187.65625 186.386719 C 186.914062 186.386719 186.316406 185.761719 186.316406 184.988281 C 186.316406 184.21875 186.914062 183.589844 187.65625 183.589844 C 188.398438 183.589844 189.003906 184.21875 189.003906 184.988281 C 189.003906 185.761719 188.398438 186.386719 187.65625 186.386719 Z M 201.328125 200.40625 C 200.59375 202.324219 198.769531 204.085938 198.769531 204.085938 C 198.769531 204.085938 199.957031 203.953125 199.949219 204.261719 C 199.921875 205.667969 195.089844 209.851562 192.09375 210.410156 C 191.214844 210.574219 189.679688 210.039062 189.617188 209.371094 C 188.9375 201.960938 188.460938 192.449219 189.292969 191.394531 C 189.914062 190.613281 193.175781 191.261719 193.550781 191.042969 L 193.550781 189.136719 C 193.335938 188.871094 190.144531 189.671875 189.105469 189.253906 C 188.804688 189.132812 188.640625 188.730469 188.734375 187.957031 C 189.886719 187.507812 190.816406 186.230469 190.816406 184.871094 C 190.816406 183.117188 189.339844 181.816406 187.65625 181.816406 C 185.976562 181.816406 184.613281 183.234375 184.613281 184.988281 C 184.613281 186.375 185.464844 187.550781 186.648438 187.984375 C 186.691406 188.855469 186.628906 189.132812 186.335938 189.253906 C 185.25 189.707031 180.976562 188.878906 181.664062 189.136719 L 181.664062 191.042969 C 180.996094 191.203125 185.367188 190.433594 186.03125 191.277344 C 187.421875 193.039062 186.484375 201.699219 185.601562 209.488281 C 185.496094 210.398438 184.296875 210.582031 183.347656 210.410156 C 180.351562 209.851562 174.957031 205.550781 174.929688 204.140625 C 174.921875 203.832031 176.109375 203.964844 176.109375 203.964844 C 174.722656 202.558594 174.691406 202.554688 173.550781 200.289062 C 173.070312 199.332031 172.941406 204.519531 172.941406 204.519531 C 172.941406 204.519531 174.0625 203.855469 174.140625 204.261719 C 175.078125 209.195312 180.5 212.660156 186.15625 214.03125 C 186.949219 214.222656 187.679688 215.742188 187.679688 215.742188 C 187.679688 215.742188 187.695312 215.980469 187.722656 215.898438 C 187.746094 215.980469 187.761719 215.742188 187.761719 215.742188 C 187.761719 215.742188 188.378906 214.222656 189.175781 214.03125 C 194.828125 212.660156 199.800781 209.3125 200.738281 204.378906 C 200.816406 203.972656 202.050781 204.996094 202.050781 204.996094 C 202.050781 204.996094 201.609375 199.664062 201.328125 200.40625 "/><g clip-rule="nonzero" clip-path="url(#7986c7d90c)"><path style=" stroke:none;fill-rule:nonzero;fill:#ffffff;fill-opacity:1;" d="M 37.464844 215.898438 C 37.488281 215.980469 37.503906 215.742188 37.503906 215.742188 C 37.503906 215.742188 38.121094 214.222656 38.917969 214.03125 C 44.570312 212.660156 49.542969 209.3125 50.480469 204.378906 C 50.558594 203.972656 51.792969 204.996094 51.792969 204.996094 C 51.792969 204.996094 51.351562 199.664062 51.066406 200.40625 C 50.335938 202.324219 48.511719 204.085938 48.511719 204.085938 C 48.511719 204.085938 49.699219 203.953125 49.691406 204.261719 C 49.664062 205.667969 44.832031 209.851562 41.835938 210.410156 C 40.960938 210.574219 39.421875 210.039062 39.359375 209.371094 C 38.683594 201.960938 38.207031 192.449219 39.035156 191.394531 C 39.65625 190.613281 42.917969 191.261719 43.296875 191.042969 L 43.296875 189.136719 C 43.078125 188.871094 39.886719 189.671875 38.847656 189.253906 C 38.546875 189.132812 38.382812 188.730469 38.476562 187.957031 C 39.628906 187.507812 40.558594 186.230469 40.558594 184.871094 C 40.558594 183.117188 39.082031 181.816406 37.398438 181.816406 C 37.347656 181.816406 37.292969 181.828125 37.238281 181.832031 L 37.238281 183.605469 C 37.292969 183.597656 37.347656 183.589844 37.398438 183.589844 C 38.140625 183.589844 38.746094 184.21875 38.746094 184.988281 C 38.746094 185.761719 38.140625 186.386719 37.398438 186.386719 C 37.347656 186.386719 37.292969 186.375 37.238281 186.371094 L 37.238281 215.398438 C 37.351562 215.601562 37.421875 215.742188 37.421875 215.742188 C 37.421875 215.742188 37.4375 215.980469 37.464844 215.898438 "/></g><path style=" stroke:none;fill-rule:nonzero;fill:#ffffff;fill-opacity:1;" d="M 264.132812 287.871094 C 264.132812 288.644531 263.527344 289.269531 262.785156 289.269531 C 262.042969 289.269531 261.445312 288.644531 261.445312 287.871094 C 261.445312 287.097656 262.042969 286.472656 262.785156 286.472656 C 263.527344 286.472656 264.132812 287.097656 264.132812 287.871094 Z M 277.179688 267.867188 C 277.179688 267.867188 275.945312 268.890625 275.867188 268.480469 C 274.929688 263.546875 269.957031 260.199219 264.304688 258.828125 C 263.507812 258.636719 262.890625 257.117188 262.890625 257.117188 C 262.890625 257.117188 262.875 256.878906 262.851562 256.960938 C 262.824219 256.878906 262.808594 257.117188 262.808594 257.117188 C 262.808594 257.117188 262.078125 258.636719 261.285156 258.828125 C 255.628906 260.199219 250.207031 263.664062 249.269531 268.597656 C 249.191406 269.007812 248.070312 268.339844 248.070312 268.339844 C 248.070312 268.339844 248.199219 273.527344 248.679688 272.570312 C 249.820312 270.304688 249.855469 270.300781 251.238281 268.894531 C 251.238281 268.894531 250.050781 269.027344 250.058594 268.71875 C 250.085938 267.3125 255.480469 263.011719 258.476562 262.453125 C 259.425781 262.277344 260.625 262.464844 260.730469 263.371094 C 261.613281 271.160156 262.550781 279.820312 261.160156 281.585938 C 260.496094 282.425781 256.125 281.65625 256.792969 281.820312 L 256.792969 283.726562 C 256.105469 283.980469 260.378906 283.15625 261.464844 283.605469 C 261.757812 283.726562 261.820312 284.007812 261.777344 284.878906 C 260.59375 285.308594 259.742188 286.484375 259.742188 287.871094 C 259.742188 289.625 261.105469 291.046875 262.785156 291.046875 C 264.46875 291.046875 265.945312 289.742188 265.945312 287.988281 C 265.945312 286.632812 265.015625 285.355469 263.863281 284.902344 C 263.769531 284.132812 263.933594 283.726562 264.234375 283.605469 C 265.273438 283.191406 268.464844 283.988281 268.679688 283.726562 L 268.679688 281.820312 C 268.304688 281.601562 265.042969 282.25 264.421875 281.464844 C 263.589844 280.414062 264.066406 270.902344 264.746094 263.488281 C 264.808594 262.820312 266.34375 262.289062 267.222656 262.453125 C 270.21875 263.011719 275.050781 267.195312 275.078125 268.597656 C 275.085938 268.910156 273.898438 268.773438 273.898438 268.773438 C 273.898438 268.773438 275.722656 270.539062 276.457031 272.453125 C 276.738281 273.195312 277.179688 267.867188 277.179688 267.867188 "/><path style=" stroke:none;fill-rule:nonzero;fill:#ffffff;fill-opacity:1;" d="M 113.875 287.871094 C 113.875 288.644531 113.269531 289.269531 112.527344 289.269531 C 111.785156 289.269531 111.1875 288.644531 111.1875 287.871094 C 111.1875 287.097656 111.785156 286.472656 112.527344 286.472656 C 113.269531 286.472656 113.875 287.097656 113.875 287.871094 Z M 126.921875 267.867188 C 126.921875 267.867188 125.6875 268.890625 125.609375 268.480469 C 124.671875 263.546875 119.699219 260.199219 114.046875 258.828125 C 113.25 258.636719 112.632812 257.117188 112.632812 257.117188 C 112.632812 257.117188 112.617188 256.878906 112.59375 256.960938 C 112.566406 256.878906 112.550781 257.117188 112.550781 257.117188 C 112.550781 257.117188 111.820312 258.636719 111.027344 258.828125 C 105.371094 260.199219 99.949219 263.664062 99.011719 268.597656 C 98.933594 269.007812 97.8125 268.339844 97.8125 268.339844 C 97.8125 268.339844 97.941406 273.527344 98.421875 272.570312 C 99.5625 270.304688 99.59375 270.300781 100.980469 268.894531 C 100.980469 268.894531 99.792969 269.027344 99.800781 268.71875 C 99.828125 267.3125 105.222656 263.011719 108.21875 262.453125 C 109.167969 262.277344 110.367188 262.464844 110.472656 263.371094 C 111.355469 271.160156 112.292969 279.820312 110.902344 281.585938 C 110.238281 282.425781 105.867188 281.65625 106.535156 281.820312 L 106.535156 283.726562 C 105.847656 283.980469 110.121094 283.15625 111.207031 283.605469 C 111.5 283.726562 111.5625 284.007812 111.519531 284.878906 C 110.335938 285.308594 109.484375 286.484375 109.484375 287.871094 C 109.484375 289.625 110.847656 291.046875 112.527344 291.046875 C 114.210938 291.046875 115.6875 289.742188 115.6875 287.988281 C 115.6875 286.632812 114.757812 285.355469 113.605469 284.902344 C 113.511719 284.132812 113.675781 283.726562 113.976562 283.605469 C 115.015625 283.191406 118.207031 283.988281 118.425781 283.726562 L 118.425781 281.820312 C 118.046875 281.601562 114.785156 282.25 114.164062 281.464844 C 113.332031 280.414062 113.808594 270.902344 114.488281 263.488281 C 114.550781 262.820312 116.085938 262.289062 116.964844 262.453125 C 119.960938 263.011719 124.792969 267.195312 124.820312 268.597656 C 124.828125 268.910156 123.640625 268.773438 123.640625 268.773438 C 123.640625 268.773438 125.464844 270.539062 126.195312 272.453125 C 126.480469 273.195312 126.921875 267.867188 126.921875 267.867188 "/></g></svg>